<svg width="150" height="118" viewBox="0 0 150 118" fill="none" xmlns="http://www.w3.org/2000/svg">
<path fill-rule="evenodd" clip-rule="evenodd" d="M117.192 62.9988C117.192 92.9074 92.9461 117.153 63.0375 117.153C33.1288 117.153 8.88306 92.9074 8.88306 62.9988C8.88306 33.0901 33.1288 8.84436 63.0375 8.84436C92.9461 8.84436 117.192 33.0901 117.192 62.9988ZM111.038 62.9988C111.038 89.5087 89.5474 110.999 63.0375 110.999C36.5275 110.999 15.037 89.5087 15.037 62.9988C15.037 36.4888 36.5275 14.9983 63.0375 14.9983C89.5474 14.9983 111.038 36.4888 111.038 62.9988Z" fill="white"/>
<path d="M63.0375 110.999C89.5474 110.999 111.038 89.5087 111.038 62.9988C111.038 36.4888 89.5474 14.9983 63.0375 14.9983C36.5275 14.9983 15.037 36.4888 15.037 62.9988C15.037 89.5087 36.5275 110.999 63.0375 110.999Z" fill="white"/>
<path fill-rule="evenodd" clip-rule="evenodd" d="M63.0375 102.384C84.7892 102.384 102.422 84.7505 102.422 62.9988C102.422 41.247 84.7892 23.6137 63.0375 23.6137C41.2857 23.6137 23.6525 41.247 23.6525 62.9988C23.6525 84.7505 41.2857 102.384 63.0375 102.384ZM111.038 62.9988C111.038 89.5087 89.5474 110.999 63.0375 110.999C36.5275 110.999 15.037 89.5087 15.037 62.9988C15.037 36.4888 36.5275 14.9983 63.0375 14.9983C89.5474 14.9983 111.038 36.4888 111.038 62.9988Z" fill="#191D1F"/>
<path d="M119.752 34.3782L119.753 34.3853C120.308 36.9324 120.91 39.9077 120.787 43.1968L120.786 43.2065L120.786 43.2162C120.706 45.1938 119.855 47.0847 118.387 48.4574C118.849 52.8156 118.891 57.6032 117.799 62.2582C116.268 68.8779 112.238 75.2291 104.61 78.8426C102.285 79.9509 99.793 80.8952 97.1974 81.5907C92.9409 82.7312 88.2764 83.2407 83.5779 82.5704C78.8262 81.8945 74.0809 79.9871 70.0051 76.4226L69.9999 76.418C68.4354 75.0467 67.0401 73.5146 65.8373 71.9483C65.5799 73.8999 65.1403 75.9268 64.4645 77.906C62.5793 83.4443 59.2905 87.5806 55.216 90.5342C51.2967 93.3832 46.8736 95.0391 42.7225 96.2537C42.4393 96.3393 42.1682 96.4119 41.9894 96.4598L41.9548 96.4691C38.2467 97.4583 33.8116 97.9851 29.4602 97.2786L29.4536 97.2775C22.4049 96.1251 17.371 91.8979 13.9601 87.3849L13.9589 87.3833C11.6602 84.3449 9.91815 81.0003 8.55371 77.8672C6.60672 77.408 4.93409 76.1991 3.88034 74.5337L3.87516 74.5255L3.87001 74.5173C2.11886 71.7304 1.15205 68.853 0.359357 66.3695L0.357712 66.3644C-0.481325 63.7276 0.179298 60.8377 2.09097 58.8279C7.80032 52.8151 14.7896 49.5979 21.6067 47.7713L21.6113 47.77C28.66 45.8872 36.322 45.3264 42.6193 44.8655C44.6913 44.7139 46.6156 44.5731 48.3216 44.3995L48.4021 44.3913L48.5825 44.3777L48.6257 44.3751C51.3929 44.2061 54.6164 43.6942 58.0194 42.7823C61.4224 41.8705 64.47 40.702 66.951 39.4648L66.9898 39.4455L67.1528 39.3671L67.2265 39.3339C68.7909 38.6312 70.5277 37.791 72.3979 36.8863L72.398 36.8862C78.0811 34.137 84.9956 30.7921 92.0436 28.8978L92.0482 28.8965C98.8663 27.0696 106.529 26.3612 114.481 28.715L115.191 28.9252L115.447 29.0741C116.559 29.4419 119.236 32.0261 119.752 34.3782Z" fill="white"/>
<path d="M112.735 34.6158C106.191 32.679 99.739 33.2067 93.641 34.8407C84.9039 37.189 76.7937 41.7824 69.7483 44.9474L69.6973 44.972C66.8193 46.4071 63.3819 47.7164 59.6122 48.7265C55.8425 49.7366 52.2109 50.3214 49.0009 50.5175L48.9445 50.5218C41.2605 51.3035 31.9368 51.3816 23.1995 53.7155C17.1014 55.3494 11.2499 58.1183 6.55152 63.0674C6.18886 63.4476 6.06232 63.9968 6.22191 64.4983C7.00714 66.9584 7.78108 69.1749 9.0807 71.2432C9.28682 71.569 9.61527 71.8003 9.98653 71.8822C10.8621 72.0721 12.0804 72.2246 12.947 72.3408C14.3916 76.1192 16.2471 80.2084 18.8675 83.6717C21.6629 87.3712 25.434 90.3847 30.4466 91.2042C33.7182 91.7354 37.2497 91.3552 40.3685 90.5231C40.5735 90.4682 40.7717 90.4151 40.9648 90.3561C44.862 89.2175 48.5119 87.8004 51.601 85.554C54.6919 83.3143 57.1825 80.205 58.6408 75.9173C59.23 74.1919 59.6054 72.3678 59.8044 70.5837C60.0636 68.2718 60.0714 66.0165 60.1472 63.8263C60.1853 62.6115 60.3761 61.5226 60.7449 60.7888C61.128 60.0548 61.5456 59.6381 62.4617 59.3745C62.6431 59.3259 62.8483 59.2854 63.0724 59.2617C63.7456 59.1938 64.2848 59.365 64.9408 59.8242C65.9082 60.5047 66.9159 61.9002 67.8052 63.4181C68.7097 64.9392 69.4983 66.5385 70.3819 67.7531C71.4463 69.1987 72.6869 70.5898 74.0564 71.7903C77.137 74.4845 80.7384 75.9506 84.4446 76.4778C88.1552 77.0075 91.9694 76.6205 95.6047 75.6464C97.8121 75.055 99.9538 74.2452 101.969 73.2845C107.641 70.5998 110.629 65.9602 111.806 60.8627C112.94 56.0377 112.61 50.7741 111.834 45.8512C112.53 45.3165 113.506 44.5761 114.172 43.973C114.453 43.7164 114.622 43.3518 114.637 42.9667C114.729 40.5256 114.291 38.2192 113.741 35.696C113.627 35.1785 113.247 34.7687 112.743 34.6208L112.735 34.6158Z" fill="url(#paint0_linear_110_265)"/>
<path d="M34.6846 58.6106C33.7565 58.5871 32.77 58.6011 31.732 58.6651C31.4698 58.681 31.2265 58.8078 31.0615 59.0117C30.8964 59.2156 30.8195 59.4793 30.8505 59.7431C30.8984 60.1367 30.9621 60.5224 31.0274 60.9004C31.0734 61.1529 31.2169 61.3794 31.429 61.5257C31.6411 61.6721 31.9004 61.726 32.1502 61.6772C32.9365 61.5209 33.7799 61.3893 34.6846 61.2848C34.7301 61.2798 34.778 61.2706 34.8217 61.2589C35.2014 61.1572 35.4839 60.8275 35.5237 60.4249C35.5454 60.1833 35.5747 59.9432 35.6058 59.7099C35.6446 59.4382 35.5644 59.1658 35.3858 58.9561C35.2105 58.7454 34.9541 58.6218 34.6822 58.6148L34.6846 58.6106ZM27.9717 59.0921C26.8743 59.2701 25.7871 59.4997 24.7456 59.7788C22.7465 60.3145 20.9221 61.0319 19.5211 61.9987C18.1376 62.95 17.0815 64.2635 17.0755 65.9342C17.0713 67.3431 17.2773 68.6631 17.6066 69.892C18.0366 71.4967 18.6766 72.958 19.3374 74.3086C20.1015 75.8164 21.5473 78.4842 23.9059 80.0293C23.9187 80.0368 23.9598 80.0693 24.061 80.1111C24.1571 80.147 24.3486 80.23 24.6729 80.1503C24.683 80.1476 24.6931 80.1449 24.6998 80.1431C25.019 80.0576 25.2722 79.7394 25.3194 79.5526C25.4126 79.2555 25.3653 79.1593 25.3682 79.0896C25.3577 79.0235 25.3495 78.993 25.3441 78.9727C25.2884 78.7917 25.2697 78.7894 25.2546 78.7463C25.1637 78.582 25.0667 78.4483 24.8795 78.1393C24.3372 77.2577 23.2855 75.4023 22.7164 73.2652C22.2166 71.3999 22.0893 69.3658 22.8512 67.5324C23.6149 65.7059 25.2603 63.9442 28.7018 62.623C29.12 62.4637 29.372 62.0334 29.3063 61.5865C29.2216 61.0287 29.1455 60.4758 29.0822 59.9303C29.052 59.6699 28.9192 59.4297 28.7112 59.2714C28.5022 59.1097 28.2392 59.0422 27.9809 59.0861L27.9717 59.0921ZM90.6784 43.9808C90.5409 43.5351 90.1119 43.2509 89.6511 43.3054C88.6008 43.4308 87.3088 43.6754 85.8568 44.0354C85.5728 44.1043 85.3351 44.3059 85.216 44.5736C85.0969 44.8414 85.1086 45.1539 85.2468 45.4144C85.3395 45.5855 85.4288 45.7575 85.5206 45.9253C85.7314 46.3223 86.1857 46.5126 86.609 46.3992C86.6426 46.3902 86.6762 46.3812 86.7046 46.3663C87.7028 45.9791 88.8331 45.6146 90.0515 45.27C90.2959 45.2009 90.5038 45.0363 90.6271 44.811C90.7513 44.589 90.781 44.3234 90.708 44.0781C90.7035 44.0612 90.6944 44.0273 90.6799 43.9732L90.6784 43.9808ZM83.2093 45.6048C82.9896 45.1883 82.5048 44.9917 82.0652 45.1385C79.1356 46.1121 76.1231 47.3947 73.8642 48.9361C72.7356 49.7102 71.7864 50.5487 71.1399 51.5093C70.4941 52.4589 70.156 53.6162 70.4403 54.7846C70.4696 54.9074 70.4998 55.0336 70.5342 55.1622C71.2735 57.9213 72.7876 60.3059 74.3014 62.139C75.8126 63.962 77.3041 65.2278 78.2079 65.8057C78.2396 65.8299 78.2823 65.8547 78.3445 65.8852C78.4421 65.9135 78.5727 66.0381 79.0176 65.9516C79.0244 65.9498 79.0311 65.948 79.0378 65.9462C79.2562 65.8877 79.4908 65.7014 79.5886 65.5156C79.7453 65.2268 79.721 65.0556 79.7225 64.9536C79.7163 64.85 79.7018 64.7958 79.6891 64.7484C79.6165 64.5175 79.5839 64.49 79.5295 64.3812C79.2069 63.7818 78.2193 62.1524 77.6372 59.9934C77.1573 58.2025 76.9825 56.1122 77.702 54.0399C78.4249 51.9666 80.0312 49.8308 83.385 47.9271C83.8352 47.6722 84.0018 47.0978 83.7561 46.6375C83.5698 46.2919 83.387 45.9454 83.2041 45.5989L83.2093 45.6048Z" fill="white"/>
<path d="M149.437 17.6473C150.188 17.7378 150.188 18.992 149.437 19.0825C136.708 20.6188 133.889 23.4376 132.353 36.1671C132.262 36.9173 131.008 36.9173 130.918 36.1671C129.381 23.4376 126.562 20.6188 113.833 19.0825C113.083 18.992 113.083 17.7378 113.833 17.6473C126.562 16.1109 129.381 13.2922 130.918 0.562635C131.008 -0.187546 132.262 -0.187544 132.353 0.562637C133.889 13.2922 136.708 16.1109 149.437 17.6473Z" fill="#0297FB"/>
<defs>
<linearGradient id="paint0_linear_110_265" x1="10.1202" y1="93.6827" x2="110.737" y2="117.774" gradientUnits="userSpaceOnUse">
<stop stop-color="#E6007A"/>
<stop offset="0.09375" stop-color="#703AC2"/>
<stop offset="0.390625" stop-color="#0070EB"/>
<stop offset="0.677083" stop-color="#0297FB"/>
<stop offset="0.994792" stop-color="#0AE2FF"/>
</linearGradient>
</defs>
</svg>
