<svg width="200" height="155" viewBox="0 0 200 155" fill="none" xmlns="http://www.w3.org/2000/svg">
<path d="M199.229 24.5746C200.257 24.7458 200.257 26.4583 199.229 26.6296C181.591 28.6846 177.652 32.6234 175.425 50.4335C175.254 51.461 173.542 51.461 173.37 50.4335C171.315 32.7946 167.377 28.8558 149.567 26.6296C148.539 26.4583 148.539 24.7458 149.567 24.5746C167.205 22.5195 171.144 18.5808 173.37 0.770631C173.542 -0.256877 175.254 -0.256877 175.425 0.770631C177.652 18.5808 181.591 22.5195 199.229 24.5746Z" fill="#0297FB"/>
<path d="M129.359 114.139C128.914 114.259 128.451 114.344 128.006 114.464C118.604 131.196 100.674 142.567 80.2099 142.567C70.0718 142.567 60.5502 139.758 52.3815 134.912C52.0733 135.015 51.765 135.117 51.4396 135.203C51.0971 135.374 50.7546 135.374 50.4121 135.545C46.4733 136.573 42.5346 137.087 38.5958 137.087C37.4313 137.087 36.2154 137.001 34.9995 136.864C46.9015 147.841 62.7936 154.554 80.2099 154.554C109.956 154.554 135.216 134.997 143.83 108.06C142.597 108.83 141.329 109.549 139.977 110.2C136.38 111.913 132.955 113.111 129.359 114.139V114.139Z" fill="black"/>
<path d="M30.838 64.048C39.726 45.707 58.5465 32.9659 80.2098 32.9659C91.8891 32.9659 102.746 36.682 111.669 42.9841C115.179 41.5969 118.793 40.3297 122.509 39.3022C123.485 39.0453 124.427 38.8398 125.386 38.6343C113.484 27.6742 97.6089 20.9783 80.2098 20.9783C50.4292 20.9783 25.1354 40.5866 16.5557 67.5758C18.1997 67.0106 19.8779 66.4797 21.6418 66.0174C24.7244 65.1782 27.7897 64.5617 30.838 64.048V64.048Z" fill="black"/>
<path d="M151.964 47.351C142.545 44.611 133.469 45.296 124.735 47.6935C112.234 51.1185 100.76 57.6261 90.6561 62.0786C86.5461 64.1336 81.5798 66.0174 76.271 67.3874C70.9623 68.7574 65.6535 69.6137 61.2009 69.9562C50.2408 71.1549 36.8832 71.1549 24.3819 74.58C15.6481 76.9775 7.25677 80.9163 0.577966 87.9376C0.0642126 88.4513 -0.107031 89.3076 0.0642205 89.9926C1.26298 93.5889 2.29048 96.6714 4.17424 99.5826C4.51674 100.096 4.85925 100.439 5.54426 100.439C6.74302 100.781 8.45553 100.953 9.82554 101.124C11.8806 106.433 14.6206 112.426 18.2169 117.222C22.1556 122.53 27.6357 126.812 34.8282 128.01C39.452 128.695 44.5895 128.182 49.0421 126.983C49.3846 126.983 49.5558 126.812 49.8983 126.812C55.3784 125.27 60.6872 123.215 65.1397 119.962C69.5922 116.708 73.1885 112.255 75.2435 106.261C76.0998 103.864 76.6135 101.124 76.956 98.7264C77.2985 95.4726 77.2985 92.2188 77.4698 89.1363C77.4698 87.4238 77.8123 85.8825 78.3261 84.855C78.8398 83.8275 79.5248 83.1425 80.7236 82.8C81.0661 82.8 81.2373 82.6288 81.5798 82.6288C82.6073 82.4575 83.2923 82.8 84.3198 83.485C85.6899 84.5125 87.0599 86.3963 88.4299 88.6226C89.7999 90.8488 90.8274 93.0751 92.0262 94.7876C93.5674 96.8426 95.2799 98.8977 97.335 100.61C101.787 104.378 106.925 106.604 112.234 107.289C117.543 107.974 123.023 107.46 128.16 106.09C131.243 105.234 134.325 104.035 137.236 102.665C145.285 98.8976 149.567 92.2188 151.279 84.855C152.82 78.005 152.478 70.4699 151.279 63.4486C152.307 62.7636 153.677 61.5649 154.533 60.7086C154.875 60.3661 155.218 59.8524 155.218 59.3386C155.389 55.9136 154.704 52.4885 154.019 48.8923C153.163 48.036 152.649 47.5223 151.964 47.351Z" fill="url(#paint0_linear_101_19)"/>
<path d="M40.4795 81.6013H36.1982C35.8557 81.6013 35.5132 81.7725 35.1707 82.1151C34.9994 82.4576 34.8282 82.8001 34.8282 83.1426C34.8282 83.6563 34.9994 84.1701 34.9994 84.8551C34.9994 85.1976 35.3419 85.5401 35.5132 85.7113C35.8557 85.8826 36.1982 86.0538 36.5407 85.8826L40.137 85.3688H40.3082C40.822 85.1976 41.3357 84.6838 41.3357 84.1701C41.3357 83.8276 41.3357 83.4851 41.507 83.1426C41.507 82.8001 41.507 82.2863 41.1645 82.1151C41.3357 81.7725 40.822 81.6013 40.4795 81.6013V81.6013ZM30.8894 82.2863C29.3482 82.4576 27.8069 82.8001 26.2656 83.3138C23.3544 83.9988 20.7856 85.0263 18.7306 86.5676C16.6756 87.9376 15.3055 89.8214 15.3055 92.2189C15.3055 94.2739 15.648 96.1577 15.9905 97.8702C16.6756 100.096 17.5318 102.323 18.3881 104.206C19.4156 106.433 21.4706 110.2 24.8956 112.427L25.0669 112.598C25.2381 112.598 25.4094 112.769 25.9231 112.598C26.4369 112.427 26.7794 112.084 26.7794 111.742C26.9506 111.399 26.7794 111.228 26.7794 111.057V110.885C26.7794 110.543 26.6081 110.543 26.6081 110.543C26.4369 110.372 26.2656 110.2 26.0944 109.687C25.2381 108.488 23.8681 105.748 23.0118 102.665C22.3268 99.9252 22.1556 97.0139 23.1831 94.4451C24.2106 91.8764 26.6081 89.3076 31.5744 87.4238C32.0882 87.2526 32.6019 86.5676 32.4307 85.8826C32.2594 85.0263 32.2594 84.3413 32.0882 83.4851C32.0882 83.1426 31.9169 82.8001 31.5744 82.6288C31.7457 82.2863 31.2319 82.115 30.8894 82.2863V82.2863ZM120.454 60.7086C120.283 60.0236 119.598 59.6811 118.913 59.6811C117.371 59.8524 115.488 60.1949 113.433 60.7086C113.09 60.8799 112.748 61.0511 112.576 61.3936C112.405 61.7362 112.405 62.2499 112.576 62.5924C112.748 62.7637 112.919 63.1062 112.919 63.2774C113.261 63.7912 113.946 64.1337 114.46 63.9624H114.631C116.001 63.4487 117.714 62.9349 119.426 62.4212C119.769 62.2499 120.111 62.0786 120.283 61.7361C120.625 61.5649 120.625 61.2224 120.454 60.7086V60.7086ZM109.836 62.9349C109.494 62.4212 108.809 62.0787 108.124 62.2499C104.014 63.6199 99.5612 65.5037 96.4787 67.7299C94.9374 68.7574 93.5674 69.9562 92.5399 71.3262C91.6836 72.6962 91.1699 74.4087 91.5124 75.95C91.5124 76.1213 91.5124 76.2925 91.6836 76.4638C92.7111 80.4025 94.9374 83.8276 96.9924 86.3963C99.2187 88.9651 101.274 90.8489 102.644 91.7051C102.644 91.7051 102.815 91.7051 102.815 91.8764C102.986 91.8764 103.157 92.0476 103.842 92.0476C104.185 92.0476 104.527 91.7051 104.699 91.3626C104.87 91.0201 104.87 90.6776 104.87 90.5064V90.1639C104.756 89.9355 104.699 89.7643 104.699 89.6501C104.185 88.7939 102.815 86.3963 101.959 83.3138C101.274 80.745 101.102 77.8338 102.13 74.7512C103.157 71.84 105.384 68.7574 110.179 66.0174C110.864 65.6749 111.035 64.8187 110.692 64.1337C110.35 63.9624 110.007 63.4487 109.836 62.9349V62.9349Z" fill="white"/>
<defs>
<linearGradient id="paint0_linear_101_19" x1="20.152" y1="70.1446" x2="163.78" y2="104.532" gradientUnits="userSpaceOnUse">
<stop stop-color="#E6007A"/>
<stop offset="0.09" stop-color="#703AC2"/>
<stop offset="0.39" stop-color="#0070EB"/>
<stop offset="0.68" stop-color="#0297FB"/>
<stop offset="0.99" stop-color="#0AE2FF"/>
</linearGradient>
</defs>
</svg>
