<svg width="180" height="165" viewBox="0 0 180 165" fill="none" xmlns="http://www.w3.org/2000/svg">
<path d="M12.6546 152.811C11.1361 152.811 9.56691 152.676 7.94711 152.406C6.36107 152.136 4.87626 151.765 3.49268 151.292C2.10911 150.82 0.94488 150.28 0 149.673L0.658041 144.206C2.27784 145.184 4.15072 145.994 6.2767 146.635C8.43643 147.243 10.478 147.547 12.4015 147.547C14.9325 147.547 16.9235 147.04 18.3745 146.028C19.8256 144.982 20.5511 143.548 20.5511 141.725C20.5511 140.679 20.298 139.785 19.7919 139.043C19.3194 138.3 18.4758 137.625 17.2609 137.018C16.0798 136.377 14.4094 135.719 12.2497 135.044C9.41505 134.166 7.15409 133.222 5.46681 132.209C3.77952 131.163 2.56467 129.948 1.82227 128.565C1.07986 127.181 0.70866 125.528 0.70866 123.604C0.70866 121.377 1.24859 119.453 2.32845 117.834C3.44206 116.214 4.99436 114.965 6.98536 114.088C8.97636 113.177 11.3048 112.721 13.9707 112.721C15.928 112.721 17.9021 112.974 19.8931 113.48C21.9178 113.986 23.6726 114.678 25.1574 115.556L24.2463 120.82C22.7952 119.943 21.1586 119.251 19.3363 118.745C17.5478 118.238 15.8099 117.985 14.1226 117.985C11.8279 117.985 10.0393 118.458 8.75701 119.403C7.47468 120.314 6.83351 121.613 6.83351 123.3C6.83351 124.279 7.05285 125.123 7.49155 125.831C7.93024 126.54 8.68952 127.181 9.76938 127.755C10.8492 128.295 12.3509 128.885 14.2744 129.526C17.3453 130.505 19.7919 131.551 21.6141 132.665C23.4701 133.745 24.8031 134.993 25.613 136.411C26.4566 137.794 26.8785 139.431 26.8785 141.321C26.8785 144.898 25.613 147.715 23.0821 149.774C20.5511 151.799 17.0753 152.811 12.6546 152.811Z" fill="#191D1F"/>
<path d="M36.1334 152.001L27.4776 126.439H33.5012L39.0186 145.826L44.8904 126.439H49.851L56.0771 145.927L61.5945 126.439H67.5169L58.8105 152.001H53.4955L47.2694 133.272L41.3977 152.001H36.1334Z" fill="#191D1F"/>
<path d="M80.6227 152.811C78.2943 152.811 76.2189 152.237 74.3966 151.09C72.6081 149.909 71.1908 148.306 70.1447 146.281C69.1323 144.223 68.6261 141.877 68.6261 139.245C68.6261 136.68 69.166 134.386 70.2459 132.361C71.3595 130.303 72.8612 128.666 74.751 127.451C76.6407 126.236 78.733 125.629 81.0277 125.629C82.8837 125.629 84.571 126.067 86.0895 126.945C87.6081 127.822 88.8229 129.054 89.7341 130.64L89.8353 126.439H95.454V152.001H89.8353L89.7341 147.8C87.8106 151.141 84.7734 152.811 80.6227 152.811ZM82.2425 147.597C84.5372 147.597 86.3932 146.821 87.8106 145.269C89.2616 143.683 89.9871 141.658 89.9871 139.195C89.9871 136.731 89.2616 134.723 87.8106 133.171C86.3932 131.619 84.5372 130.842 82.2425 130.842C79.9816 130.842 78.1255 131.619 76.6745 133.171C75.2571 134.723 74.5485 136.731 74.5485 139.195C74.5485 141.658 75.2571 143.683 76.6745 145.269C78.1255 146.821 79.9816 147.597 82.2425 147.597Z" fill="#191D1F"/>
<path d="M100.119 152.001V126.439H105.737L105.788 130.387C106.53 128.902 107.61 127.738 109.028 126.894C110.445 126.051 112.082 125.629 113.938 125.629C116.941 125.629 119.236 126.574 120.822 128.463C122.408 130.319 123.201 133.002 123.201 136.512V152.001H117.38V137.575C117.38 133.053 115.625 130.792 112.115 130.792C110.192 130.792 108.673 131.433 107.56 132.715C106.48 133.998 105.94 135.786 105.94 138.081V152.001H100.119Z" fill="#191D1F"/>
<path d="M127.718 152.001V111H133.539V136.461L144.017 126.439H151.154L139.056 137.727L153.078 152.001H145.535L133.539 139.599V152.001H127.718Z" fill="#191D1F"/>
<path d="M156.817 164.403L163.65 150.128L152.818 126.439H159.145L166.687 144.105L173.825 126.439H180L162.739 164.403H156.817Z" fill="#191D1F"/>
<path d="M99.6078 94.4358C120.413 88.861 132.76 67.4759 127.185 46.6707C121.61 25.8655 100.225 13.5188 79.4199 19.0935C58.6147 24.6683 46.268 46.0534 51.8427 66.8586C57.4175 87.6638 78.8026 100.01 99.6078 94.4358Z" fill="white"/>
<path fill-rule="evenodd" clip-rule="evenodd" d="M132.015 45.3766C138.304 68.8491 124.374 92.976 100.902 99.2654C77.4293 105.555 53.3025 91.6252 47.013 68.1527C40.7236 44.6802 54.6532 20.5534 78.1257 14.2639C101.598 7.97448 125.725 21.9041 132.015 45.3766ZM127.185 46.6707C132.76 67.4759 120.413 88.861 99.6077 94.4358C78.8025 100.01 57.4174 87.6638 51.8427 66.8586C46.2679 46.0534 58.6147 24.6683 79.4198 19.0936C100.225 13.5188 121.61 25.8655 127.185 46.6707Z" fill="white"/>
<path d="M99.6078 94.4358C120.413 88.861 132.76 67.4759 127.185 46.6707C121.61 25.8655 100.225 13.5188 79.4199 19.0935C58.6147 24.6683 46.268 46.0534 51.8427 66.8586C57.4175 87.6638 78.8026 100.01 99.6078 94.4358Z" fill="white"/>
<path fill-rule="evenodd" clip-rule="evenodd" d="M97.796 87.6743C114.867 83.1001 124.998 65.5534 120.423 48.4824C115.849 31.4115 98.3025 21.2809 81.2316 25.855C64.1607 30.4292 54.0301 47.9759 58.6042 65.0469C63.1783 82.1178 80.7251 92.2484 97.796 87.6743ZM127.185 46.6707C132.76 67.4759 120.413 88.861 99.6078 94.4358C78.8026 100.01 57.4175 87.6638 51.8427 66.8586C46.268 46.0534 58.6147 24.6683 79.4199 19.0935C100.225 13.5188 121.61 25.8655 127.185 46.6707Z" fill="#191D1F"/>
<path d="M135.594 33.5106L135.595 33.5164C136.046 35.586 136.535 38.0033 136.435 40.6757L136.434 40.6836L136.434 40.6914C136.369 42.2983 135.677 43.8346 134.485 44.9499C134.86 48.4909 134.895 52.3808 134.007 56.163C132.763 61.5414 129.489 66.7017 123.291 69.6376C121.402 70.5381 119.377 71.3053 117.268 71.8704C113.81 72.7971 110.02 73.211 106.203 72.6664C102.342 72.1172 98.4865 70.5676 95.175 67.6714L95.1707 67.6677C93.8996 66.5535 92.7659 65.3087 91.7887 64.0361C91.5795 65.6218 91.2224 67.2686 90.6732 68.8767C89.1415 73.3765 86.4694 76.7372 83.1589 79.137C79.9745 81.4518 76.3808 82.7972 73.008 83.784C72.778 83.8536 72.5577 83.9126 72.4124 83.9515L72.3843 83.959C69.3715 84.7628 65.7681 85.1908 62.2326 84.6167L62.2272 84.6158C56.5002 83.6795 52.4102 80.2449 49.6388 76.5782L49.6378 76.5769C47.7702 74.1082 46.3548 71.3907 45.2462 68.8451C43.6643 68.472 42.3053 67.4898 41.4491 66.1367L41.4449 66.13L41.4407 66.1234C40.0179 63.859 39.2324 61.5212 38.5884 59.5034L38.587 59.4992C37.9053 57.3568 38.4421 55.0088 39.9953 53.3758C44.6341 48.4905 50.3128 45.8766 55.8517 44.3924L55.8554 44.3914C61.5824 42.8616 67.8077 42.406 72.9242 42.0315C74.6077 41.9083 76.1711 41.7939 77.5573 41.6529L77.6227 41.6462L77.7692 41.6352L77.8043 41.6331C80.0527 41.4957 82.6717 41.0798 85.4367 40.339C88.2016 39.5981 90.6777 38.6487 92.6935 37.6435L92.725 37.6278L92.8575 37.5641L92.9174 37.5372C94.1884 36.9662 95.5996 36.2835 97.1192 35.5484C101.737 33.3147 107.355 30.597 113.081 29.0579L113.085 29.0569C118.624 27.5725 124.85 26.9969 131.311 28.9094L131.888 29.0801L132.096 29.2011C133 29.5 135.175 31.5996 135.594 33.5106Z" fill="white"/>
<path d="M129.892 33.7037C124.576 32.1301 119.334 32.5589 114.379 33.8865C107.28 35.7945 100.691 39.5265 94.9663 42.0981L94.9249 42.118C92.5865 43.2841 89.7936 44.3479 86.7308 45.1686C83.668 45.9893 80.7173 46.4644 78.1093 46.6238L78.0634 46.6272C71.8202 47.2623 64.2448 47.3258 57.1458 49.2221C52.1912 50.5496 47.4369 52.7994 43.6195 56.8205C43.3248 57.1294 43.222 57.5755 43.3517 57.983C43.9896 59.9819 44.6185 61.7827 45.6744 63.4632C45.8419 63.7279 46.1087 63.9158 46.4104 63.9824C47.1217 64.1367 48.1117 64.2606 48.8157 64.355C49.9894 67.4249 51.497 70.7473 53.6261 73.5613C55.8973 76.5671 58.9613 79.0155 63.034 79.6813C65.6921 80.1129 68.5615 79.804 71.0955 79.128C71.262 79.0833 71.4231 79.0402 71.5799 78.9923C74.7464 78.0671 77.7119 76.9158 80.2218 75.0906C82.7331 73.2709 84.7567 70.7446 85.9416 67.2609C86.4203 65.859 86.7253 64.3769 86.887 62.9274C87.0976 61.049 87.1039 59.2165 87.1655 57.4371C87.1965 56.45 87.3515 55.5653 87.6511 54.9691C87.9624 54.3727 88.3017 54.0342 89.046 53.82C89.1934 53.7805 89.3602 53.7476 89.5422 53.7283C90.0892 53.6731 90.5273 53.8122 91.0603 54.1853C91.8463 54.7383 92.665 55.8721 93.3875 57.1054C94.1224 58.3412 94.7632 59.6406 95.4811 60.6275C96.3459 61.802 97.3539 62.9323 98.4666 63.9077C100.97 66.0967 103.896 67.2879 106.907 67.7163C109.922 68.1467 113.021 67.8322 115.974 67.0408C117.768 66.5602 119.508 65.9023 121.145 65.1217C125.754 62.9404 128.182 59.1708 129.137 55.0291C130.059 51.1089 129.791 46.8323 129.161 42.8325C129.726 42.398 130.519 41.7964 131.06 41.3064C131.288 41.0979 131.426 40.8017 131.438 40.4888C131.512 38.5054 131.157 36.6315 130.71 34.5814C130.617 34.1609 130.309 33.828 129.899 33.7078L129.892 33.7037Z" fill="url(#paint0_linear_101_41)"/>
<path d="M66.4773 53.1993C65.7232 53.1803 64.9217 53.1916 64.0784 53.2436C63.8653 53.2565 63.6676 53.3596 63.5336 53.5252C63.3995 53.6909 63.3369 53.9052 63.3622 54.1195C63.401 54.4393 63.4528 54.7526 63.5059 55.0598C63.5433 55.265 63.6599 55.4489 63.8322 55.5678C64.0045 55.6868 64.2152 55.7306 64.4181 55.6909C65.057 55.5639 65.7423 55.457 66.4773 55.3721C66.5143 55.3681 66.5532 55.3606 66.5887 55.3511C66.8972 55.2684 67.1268 55.0005 67.1591 54.6735C67.1767 54.4771 67.2005 54.2821 67.2258 54.0925C67.2573 53.8718 67.1922 53.6504 67.047 53.48C66.9046 53.3089 66.6963 53.2084 66.4754 53.2028L66.4773 53.1993ZM61.0232 53.5906C60.1315 53.7352 59.2482 53.9217 58.4019 54.1485C56.7777 54.5837 55.2954 55.1666 54.1571 55.9521C53.033 56.725 52.175 57.7922 52.17 59.1497C52.1666 60.2944 52.334 61.3669 52.6016 62.3654C52.9509 63.6692 53.471 64.8565 54.0078 65.9538C54.6287 67.1789 55.8034 69.3465 57.7197 70.6018C57.7301 70.6079 57.7635 70.6343 57.8458 70.6683C57.9238 70.6975 58.0794 70.7649 58.3429 70.7002C58.3511 70.698 58.3593 70.6958 58.3648 70.6943C58.6241 70.6248 58.8298 70.3663 58.8682 70.2145C58.9439 69.9731 58.9054 69.895 58.9078 69.8383C58.8993 69.7846 58.8926 69.7599 58.8882 69.7434C58.843 69.5963 58.8278 69.5944 58.8155 69.5594C58.7417 69.4259 58.6629 69.3173 58.5107 69.0662C58.0701 68.3499 57.2156 66.8425 56.7533 65.1061C56.3472 63.5905 56.2437 61.9378 56.8628 60.4482C57.4833 58.9642 58.8202 57.5329 61.6163 56.4593C61.9561 56.33 62.1609 55.9803 62.1075 55.6172C62.0387 55.164 61.9768 54.7148 61.9254 54.2716C61.9009 54.06 61.793 53.8648 61.6239 53.7362C61.4542 53.6048 61.2405 53.55 61.0306 53.5856L61.0232 53.5906ZM111.972 41.3128C111.86 40.9506 111.512 40.7197 111.137 40.764C110.284 40.8659 109.234 41.0646 108.054 41.3571C107.824 41.4131 107.63 41.5768 107.534 41.7944C107.437 42.012 107.446 42.2659 107.559 42.4775C107.634 42.6166 107.707 42.7563 107.781 42.8926C107.952 43.2152 108.322 43.3698 108.665 43.2777C108.693 43.2704 108.72 43.2631 108.743 43.251C109.554 42.9364 110.473 42.6402 111.462 42.3602C111.661 42.304 111.83 42.1703 111.93 41.9872C112.031 41.8069 112.055 41.5911 111.996 41.3918C111.992 41.378 111.985 41.3505 111.973 41.3065L111.972 41.3128ZM105.903 42.6322C105.725 42.2938 105.331 42.1341 104.974 42.2533C102.593 43.0444 100.146 44.0865 98.3104 45.3389C97.3935 45.9678 96.6222 46.6491 96.097 47.4296C95.5722 48.2011 95.2975 49.1414 95.5285 50.0908C95.5523 50.1905 95.5768 50.293 95.6049 50.3975C96.2055 52.6393 97.4356 54.5768 98.6657 56.0662C99.8935 57.5473 101.105 58.5758 101.84 59.0453C101.865 59.0649 101.9 59.0851 101.951 59.1099C102.03 59.1329 102.136 59.2341 102.498 59.1638C102.503 59.1623 102.508 59.1609 102.514 59.1594C102.691 59.1119 102.882 58.9606 102.961 58.8096C103.089 58.575 103.069 58.4358 103.07 58.3529C103.065 58.2688 103.053 58.2248 103.043 58.1863C102.984 57.9987 102.958 57.9763 102.913 57.8879C102.651 57.4009 101.849 56.077 101.376 54.3228C100.986 52.8678 100.844 51.1694 101.429 49.4856C102.016 47.8012 103.321 46.0658 106.046 44.5191C106.412 44.312 106.547 43.8453 106.347 43.4713C106.196 43.1905 106.048 42.909 105.899 42.6275L105.903 42.6322Z" fill="white"/>
<g clip-path="url(#clip0_101_41)">
<path d="M159.713 19.9169C160.322 19.9905 160.322 21.0095 159.713 21.0831C149.37 22.3313 147.08 24.6215 145.832 34.9642C145.758 35.5737 144.739 35.5737 144.666 34.9642C143.417 24.6215 141.127 22.3313 130.785 21.0831C130.175 21.0095 130.175 19.9905 130.785 19.9169C141.127 18.6687 143.417 16.3785 144.666 6.03583C144.739 5.42631 145.758 5.42631 145.832 6.03583C147.08 16.3785 149.37 18.6687 159.713 19.9169Z" fill="#0297FB"/>
</g>
<defs>
<linearGradient id="paint0_linear_101_41" x1="46.519" y1="81.6951" x2="128.27" y2="101.269" gradientUnits="userSpaceOnUse">
<stop stop-color="#E6007A"/>
<stop offset="0.09375" stop-color="#703AC2"/>
<stop offset="0.390625" stop-color="#0070EB"/>
<stop offset="0.677083" stop-color="#0297FB"/>
<stop offset="0.994792" stop-color="#0AE2FF"/>
</linearGradient>
<clipPath id="clip0_101_41">
<rect width="41" height="41" fill="white" transform="translate(124.749)"/>
</clipPath>
</defs>
</svg>
