<svg width="316" height="105" viewBox="0 0 316 105" fill="none" xmlns="http://www.w3.org/2000/svg">
<path d="M62.859 94.4358C83.6642 88.861 96.0109 67.4759 90.4362 46.6707C84.8614 25.8655 63.4763 13.5188 42.6711 19.0936C21.8659 24.6683 9.51921 46.0534 15.0939 66.8586C20.6687 87.6638 42.0538 100.011 62.859 94.4358Z" fill="white"/>
<path fill-rule="evenodd" clip-rule="evenodd" d="M95.2657 45.3766C101.555 68.8491 87.6255 92.976 64.153 99.2654C40.6805 105.555 16.5537 91.6252 10.2643 68.1527C3.97482 44.6802 17.9044 20.5534 41.377 14.2639C64.8495 7.9745 88.9763 21.9041 95.2657 45.3766ZM90.4361 46.6707C96.0108 67.4759 83.6641 88.8611 62.8589 94.4358C42.0538 100.011 20.6686 87.6638 15.0939 66.8586C9.51916 46.0534 21.8659 24.6683 42.6711 19.0936C63.4762 13.5188 84.8614 25.8656 90.4361 46.6707Z" fill="white"/>
<path d="M62.859 94.4358C83.6642 88.861 96.0109 67.4759 90.4362 46.6707C84.8614 25.8655 63.4763 13.5188 42.6711 19.0936C21.8659 24.6683 9.51921 46.0534 15.0939 66.8586C20.6687 87.6638 42.0538 100.011 62.859 94.4358Z" fill="white"/>
<path fill-rule="evenodd" clip-rule="evenodd" d="M61.0473 87.6743C78.1182 83.1002 88.2488 65.5534 83.6747 48.4825C79.1005 31.4115 61.5538 21.2809 44.4828 25.855C27.4119 30.4292 17.2813 47.976 21.8554 65.0469C26.4296 82.1178 43.9763 92.2484 61.0473 87.6743ZM90.4362 46.6707C96.0109 67.4759 83.6642 88.861 62.859 94.4358C42.0538 100.011 20.6687 87.6638 15.0939 66.8586C9.51921 46.0534 21.8659 24.6683 42.6711 19.0936C63.4763 13.5188 84.8614 25.8655 90.4362 46.6707Z" fill="#191D1F"/>
<path d="M98.5936 33.5107L98.5949 33.5164C99.046 35.586 99.5347 38.0033 99.4347 40.6757L99.4344 40.6836L99.434 40.6915C99.3689 42.2983 98.6774 43.8346 97.4847 44.9499C97.86 48.4909 97.8945 52.3808 97.0071 56.163C95.7634 61.5414 92.4886 66.7017 86.2914 69.6376C84.4021 70.5381 82.3773 71.3054 80.2685 71.8704C76.8101 72.7971 73.0202 73.211 69.2027 72.6665C65.342 72.1173 61.4865 70.5676 58.175 67.6714L58.1707 67.6677C56.8996 66.5535 55.7659 65.3087 54.7887 64.0361C54.5795 65.6218 54.2224 67.2686 53.6732 68.8767C52.1415 73.3765 49.4694 76.7372 46.1589 79.137C42.9745 81.4518 39.3808 82.7972 36.008 83.784C35.778 83.8536 35.5577 83.9126 35.4124 83.9515L35.3843 83.959C32.3715 84.7628 28.7681 85.1908 25.2326 84.6167L25.2272 84.6158C19.5002 83.6796 15.4102 80.2449 12.6388 76.5782L12.6378 76.5769C10.7702 74.1082 9.3548 71.3907 8.24621 68.8451C6.66429 68.472 5.30529 67.4898 4.44913 66.1367L4.44492 66.13L4.44074 66.1234C3.01794 63.859 2.23241 61.5212 1.58836 59.5034L1.58703 59.4992C0.905314 57.3569 1.44207 55.0088 2.99528 53.3758C7.63409 48.4905 13.3128 45.8766 18.8517 44.3924L18.8554 44.3914C24.5824 42.8617 30.8077 42.406 35.9242 42.0316C37.6077 41.9083 39.1711 41.7939 40.5573 41.6529L40.6227 41.6462L40.7692 41.6352L40.8043 41.6331C43.0527 41.4957 45.6717 41.0798 48.4367 40.339C51.2016 39.5981 53.6777 38.6488 55.6935 37.6435L55.725 37.6278L55.8575 37.5641L55.9174 37.5372C57.1884 36.9662 58.5996 36.2835 60.1192 35.5484C64.7366 33.3147 70.3546 30.597 76.081 29.0579L76.0848 29.0569C81.6244 27.5725 87.8503 26.9969 94.3113 28.9094L94.8883 29.0801L95.0961 29.2011C96 29.5 98.1747 31.5996 98.5936 33.5107Z" fill="white"/>
<path d="M93.1434 33.7037C87.8268 32.1301 82.5846 32.5589 77.63 33.8865C70.5312 35.7945 63.9417 39.5265 58.2174 42.0981L58.176 42.118C55.8376 43.2841 53.0447 44.3479 49.9819 45.1686C46.9191 45.9893 43.9684 46.4644 41.3604 46.6238L41.3145 46.6272C35.0713 47.2623 27.4959 47.3258 20.3969 49.2221C15.4423 50.5496 10.688 52.7994 6.87055 56.8205C6.5759 57.1294 6.47309 57.5755 6.60275 57.983C7.24074 59.9819 7.86957 61.7827 8.9255 63.4632C9.09297 63.7279 9.35983 63.9158 9.66147 63.9824C10.3728 64.1367 11.3628 64.2606 12.0668 64.355C13.2405 67.4249 14.7481 70.7473 16.8772 73.5613C19.1484 76.5671 22.2124 79.0155 26.2851 79.6813C28.9432 80.1129 31.8126 79.804 34.3466 79.128C34.5131 79.0833 34.6742 79.0402 34.831 78.9923C37.9975 78.0671 40.963 76.9158 43.4729 75.0906C45.9842 73.2709 48.0078 70.7446 49.1926 67.2609C49.6714 65.859 49.9764 64.3769 50.1381 62.9274C50.3487 61.049 50.355 59.2165 50.4166 57.4371C50.4476 56.45 50.6026 55.5653 50.9022 54.9691C51.2135 54.3727 51.5528 54.0342 52.2971 53.82C52.4445 53.7805 52.6113 53.7476 52.7933 53.7283C53.3403 53.6731 53.7784 53.8122 54.3114 54.1853C55.0974 54.7383 55.9161 55.8721 56.6386 57.1054C57.3735 58.3412 58.0143 59.6406 58.7322 60.6275C59.597 61.802 60.605 62.9323 61.7177 63.9077C64.2207 66.0967 67.1467 67.2879 70.1581 67.7163C73.1729 68.1467 76.2719 67.8322 79.2255 67.0408C81.019 66.5602 82.7591 65.9023 84.3961 65.1217C89.0049 62.9404 91.4327 59.1708 92.3885 55.0291C93.3101 51.1089 93.0419 46.8323 92.412 42.8324C92.9773 42.398 93.7699 41.7964 94.3115 41.3064C94.5394 41.0979 94.6766 40.8017 94.6893 40.4888C94.7635 38.5054 94.4077 36.6315 93.9608 34.5814C93.8686 34.1609 93.5599 33.828 93.1503 33.7078L93.1434 33.7037Z" fill="url(#paint0_linear_101_30)"/>
<path d="M29.7286 53.1993C28.9745 53.1802 28.1729 53.1916 27.3296 53.2436C27.1165 53.2565 26.9189 53.3596 26.7848 53.5252C26.6507 53.6909 26.5881 53.9052 26.6134 54.1195C26.6523 54.4393 26.704 54.7526 26.7571 55.0598C26.7945 55.2649 26.9111 55.4489 27.0834 55.5678C27.2557 55.6868 27.4664 55.7305 27.6694 55.6909C28.3083 55.5639 28.9935 55.457 29.7285 55.3721C29.7655 55.368 29.8044 55.3606 29.8399 55.351C30.1484 55.2684 30.378 55.0005 30.4103 54.6735C30.4279 54.4771 30.4517 54.2821 30.477 54.0925C30.5085 53.8718 30.4434 53.6504 30.2982 53.48C30.1558 53.3089 29.9475 53.2084 29.7266 53.2028L29.7286 53.1993ZM24.2744 53.5906C23.3827 53.7352 22.4994 53.9217 21.6532 54.1485C20.0289 54.5837 18.5467 55.1666 17.4084 55.9521C16.2842 56.725 15.4262 57.7922 15.4213 59.1497C15.4179 60.2944 15.5853 61.3669 15.8528 62.3654C16.2022 63.6692 16.7222 64.8565 17.259 65.9538C17.8799 67.1789 19.0546 69.3465 20.9709 70.6018C20.9813 70.6079 21.0147 70.6343 21.097 70.6683C21.175 70.6975 21.3306 70.7649 21.5941 70.7002C21.6023 70.698 21.6105 70.6958 21.616 70.6943C21.8753 70.6248 22.0811 70.3663 22.1194 70.2145C22.1951 69.9731 22.1567 69.895 22.159 69.8383C22.1505 69.7846 22.1439 69.7598 22.1394 69.7433C22.0942 69.5963 22.079 69.5944 22.0667 69.5594C21.9929 69.4259 21.9141 69.3173 21.762 69.0662C21.3213 68.3499 20.4668 66.8425 20.0045 65.1061C19.5984 63.5905 19.495 61.9378 20.114 60.4482C20.7345 58.9642 22.0714 57.5329 24.8675 56.4593C25.2074 56.33 25.4121 55.9803 25.3587 55.6172C25.2899 55.164 25.2281 54.7147 25.1766 54.2716C25.1521 54.06 25.0442 53.8648 24.8752 53.7362C24.7054 53.6048 24.4917 53.55 24.2818 53.5856L24.2744 53.5906ZM75.223 41.3127C75.1113 40.9506 74.7627 40.7197 74.3884 40.764C73.535 40.8659 72.4853 41.0646 71.3055 41.3571C71.0748 41.4131 70.8817 41.5768 70.7849 41.7944C70.6881 42.0119 70.6976 42.2659 70.8099 42.4775C70.8852 42.6166 70.9578 42.7563 71.0323 42.8926C71.2036 43.2152 71.5727 43.3698 71.9167 43.2777C71.944 43.2704 71.9713 43.263 71.9944 43.251C72.8054 42.9364 73.7237 42.6402 74.7137 42.3602C74.9122 42.304 75.0812 42.1703 75.1814 41.9872C75.2823 41.8069 75.3064 41.5911 75.2471 41.3918C75.2434 41.378 75.236 41.3505 75.2242 41.3065L75.223 41.3127ZM69.1544 42.6322C68.976 42.2938 68.5821 42.134 68.2249 42.2533C65.8446 43.0444 63.397 44.0865 61.5616 45.3389C60.6447 45.9678 59.8734 46.6491 59.3482 47.4296C58.8234 48.2011 58.5488 49.1414 58.7797 50.0907C58.8035 50.1905 58.8281 50.293 58.8561 50.3975C59.4568 52.6393 60.6869 54.5768 61.9169 56.0662C63.1447 57.5473 64.3565 58.5758 65.0909 59.0453C65.1166 59.0649 65.1513 59.0851 65.2018 59.1099C65.2811 59.1329 65.3873 59.2341 65.7488 59.1638C65.7542 59.1623 65.7597 59.1609 65.7651 59.1594C65.9426 59.1119 66.1332 58.9606 66.2127 58.8095C66.34 58.575 66.3202 58.4358 66.3214 58.3529C66.3165 58.2688 66.3047 58.2248 66.2943 58.1862C66.2353 57.9986 66.2088 57.9763 66.1647 57.8879C65.9025 57.4009 65.1001 56.077 64.6272 54.3228C64.2373 52.8678 64.0953 51.1694 64.6798 49.4856C65.2671 47.8011 66.5723 46.0658 69.2972 44.5191C69.663 44.312 69.7984 43.8453 69.5987 43.4713C69.4474 43.1905 69.2988 42.909 69.1502 42.6274L69.1544 42.6322Z" fill="white"/>
<g clip-path="url(#clip0_101_30)">
<path d="M122.964 19.9169C123.574 19.9905 123.574 21.0095 122.964 21.0831C112.622 22.3313 110.331 24.6215 109.083 34.9642C109.009 35.5737 107.991 35.5737 107.917 34.9642C106.669 24.6215 104.378 22.3313 94.0358 21.0831C93.4263 21.0095 93.4263 19.9905 94.0358 19.9169C104.378 18.6687 106.669 16.3785 107.917 6.03583C107.991 5.42631 109.009 5.42631 109.083 6.03583C110.331 16.3785 112.622 18.6687 122.964 19.9169Z" fill="#0297FB"/>
</g>
<path d="M130.061 75.4566C128.373 75.4566 126.63 75.3066 124.83 75.0067C123.068 74.7067 121.418 74.2942 119.881 73.7693C118.343 73.2444 117.05 72.6445 116 71.9695L116.731 65.8953C118.531 66.9827 120.612 67.8826 122.974 68.595C125.374 69.2699 127.642 69.6073 129.779 69.6073C132.592 69.6073 134.804 69.0449 136.416 67.9201C138.028 66.7577 138.835 65.1642 138.835 63.1394C138.835 61.9771 138.553 60.9834 137.991 60.1585C137.466 59.3336 136.529 58.5837 135.179 57.9088C133.866 57.1964 132.01 56.4653 129.611 55.7154C126.461 54.7405 123.949 53.6906 122.074 52.5658C120.199 51.4034 118.85 50.0536 118.025 48.5163C117.2 46.979 116.787 45.1417 116.787 43.0045C116.787 40.5298 117.387 38.3926 118.587 36.5928C119.825 34.793 121.549 33.4057 123.762 32.4308C125.974 31.4184 128.561 30.9123 131.523 30.9123C133.698 30.9123 135.891 31.1935 138.103 31.7559C140.353 32.3183 142.303 33.087 143.953 34.0619L142.94 39.9111C141.328 38.9362 139.51 38.1676 137.485 37.6052C135.498 37.0427 133.567 36.7615 131.692 36.7615C129.142 36.7615 127.155 37.2864 125.73 38.3363C124.305 39.3487 123.593 40.7923 123.593 42.667C123.593 43.7544 123.837 44.6918 124.324 45.4792C124.811 46.2666 125.655 46.979 126.855 47.6164C128.055 48.2163 129.723 48.8725 131.86 49.5849C135.273 50.6722 137.991 51.8346 140.016 53.0719C142.078 54.2718 143.559 55.6591 144.459 57.2339C145.396 58.7712 145.865 60.5897 145.865 62.6895C145.865 66.664 144.459 69.7948 141.647 72.082C138.835 74.3317 134.973 75.4566 130.061 75.4566Z" fill="#191D1F"/>
<path d="M156.148 74.5567L146.531 46.1541H153.224L159.354 67.6951L165.878 46.1541H171.39L178.308 67.8076L184.438 46.1541H191.019L181.345 74.5567H175.439L168.522 53.7469L161.997 74.5567H156.148Z" fill="#191D1F"/>
<path d="M205.581 75.4566C202.994 75.4566 200.688 74.8192 198.663 73.5443C196.676 72.232 195.101 70.451 193.939 68.2013C192.814 65.9141 192.251 63.3081 192.251 60.3835C192.251 57.5339 192.851 54.9842 194.051 52.7345C195.288 50.4473 196.957 48.6288 199.057 47.2789C201.156 45.9291 203.481 45.2542 206.031 45.2542C208.093 45.2542 209.968 45.7416 211.655 46.7165C213.342 47.6914 214.692 49.06 215.705 50.8222L215.817 46.1541H222.06V74.5567H215.817L215.705 69.8886C213.567 73.6006 210.193 75.4566 205.581 75.4566ZM207.381 69.6636C209.93 69.6636 211.992 68.8012 213.567 67.0764C215.18 65.3141 215.986 63.0644 215.986 60.3273C215.986 57.5901 215.18 55.3591 213.567 53.6344C211.992 51.9096 209.93 51.0472 207.381 51.0472C204.868 51.0472 202.806 51.9096 201.194 53.6344C199.619 55.3591 198.832 57.5901 198.832 60.3273C198.832 63.0644 199.619 65.3141 201.194 67.0764C202.806 68.8012 204.868 69.6636 207.381 69.6636Z" fill="#191D1F"/>
<path d="M227.243 74.5567V46.1541H233.486L233.542 50.541C234.367 48.8912 235.567 47.5976 237.142 46.6603C238.717 45.7229 240.535 45.2542 242.597 45.2542C245.934 45.2542 248.484 46.3041 250.246 48.4038C252.009 50.466 252.89 53.4469 252.89 57.3464V74.5567H246.422V58.5275C246.422 53.5031 244.472 50.991 240.573 50.991C238.435 50.991 236.748 51.7034 235.511 53.1282C234.311 54.553 233.711 56.5403 233.711 59.0899V74.5567H227.243Z" fill="#191D1F"/>
<path d="M257.909 74.5567V29H264.377V57.2902L276.019 46.1541H283.949L270.507 58.6962L286.086 74.5567H277.706L264.377 60.7772V74.5567H257.909Z" fill="#191D1F"/>
<path d="M290.241 88.3362L297.834 72.4757L285.798 46.1541H292.828L301.208 65.7828L309.138 46.1541H316L296.821 88.3362H290.241Z" fill="#191D1F"/>
<defs>
<linearGradient id="paint0_linear_101_30" x1="9.77006" y1="81.6951" x2="91.5208" y2="101.269" gradientUnits="userSpaceOnUse">
<stop stop-color="#E6007A"/>
<stop offset="0.09375" stop-color="#703AC2"/>
<stop offset="0.390625" stop-color="#0070EB"/>
<stop offset="0.677083" stop-color="#0297FB"/>
<stop offset="0.994792" stop-color="#0AE2FF"/>
</linearGradient>
<clipPath id="clip0_101_30">
<rect width="41" height="41" fill="white" transform="translate(88)"/>
</clipPath>
</defs>
</svg>
